<svg xmlns="http://www.w3.org/2000/svg" viewBox="0 0 498 182" fill="#9EB091"><path d="M244.251 76.47c-1.219-3.91-1.926-14.46-1.926-30.342V20.89c0-12.68.914-15.763 5.182-17.184V2.88c-2.32.304-4.656.462-6.996.474a35.4 35.4 0 01-6.096-.474l-26.663 64.35-26.967-64.35a54.216 54.216 0 01-7.807.474 46.409 46.409 0 01-7.315-.474v.826c2.838 1.303 3.353 1.661 4.267 3.438 1.421 2.487 1.829 6.04 1.829 13.746v11.97c0 4.503-.305 24.296-.402 27.731-.305 9.005-.713 12.088-2.03 15.29-.346.822-.79 1.6-1.323 2.316-1.259 1.665-3.423 1.823-4.859.386-1.792-1.822-3.286-4.267-5.447-8.631-.872-1.896-4.758-10.545-11.464-25.834L128.063.493l-19.63 45.156C100.682 63.434 96.74 71.67 93.232 76.42c-1.524 2.083-3.466 2.815-6.124 2.818-4.572 0-9.166-.656-10.873-4.796-1.384-3.34-1.164-3.434-1.554-38.158V20.89c0-9.415-.116-14.763-.171-16.908-.022-.607-.436-1.078-.936-1.063-9.2.304-71.632.195-71.632.195v.829c4.179 1.54 5.148 4.74 5.148 17.78v13.864c0 23.106-.195 31.89-.97 37.326-.777 4.98-2.526 7.471-6.12 8.656v.829c3.009-.356 4.856-.474 9.52-.474 5.538 0 8.748.118 13.216.474v-.814c-2.917-.832-4.468-2.372-5.444-4.86-1.36-3.911-2.133-14.46-2.133-30.222v-4.164h11.327c8.257 0 14.67.948 17.984 2.733 2.627 1.422 3.697 2.843 5.346 7.11h.68V29.78h-.72c-.972 3.675-2.233 5.57-4.956 7.343-3.106 1.899-7.87 2.61-18.752 2.61H15.143V5.716h8.895c7.788 0 17.887.17 26.406.17 12.016 0 16.171 6.341 16.171 14.997v14.46c0 23.464-.29 32.114-1.164 37.563-.778 4.98-2.82 7.471-6.8 8.656v.829c2.721-.122 9.037-.24 11.277-.24h53.1l3.984-16.47-.585-.359c-2.918 3.675-5.152 5.928-7.383 7.705-4.926 3.626-12.821 5.89-22.319 6.405 2.158-4.446 7.011-16.005 11.513-26.79l3.594-8.531h25.461l7.676 18.608c2.917 7.11 3.792 10.308 3.792 13.51 0 2.487-1.363 4.503-3.792 5.332v.83c3.109-.359 5.151-.711 9.62-.711 3.764 0 7.526.137 11.278.21 3.588.066 7.179-.037 10.763.106 1.793.07 3.579.21 5.362.395v-.808a11.637 11.637 0 01-5.776-6.281c-1.628-3.915-1.93-9.011-1.93-31.407V11.171l29.513 73.359 30.113-72.527v34.125c0 16.121-.61 26.423-1.93 30.341-.808 2.488-2.225 4.028-4.877 4.86v.829a75.83 75.83 0 019.73-.474c5.182 0 8.114.118 12.369.474v-.83c-2.618-.96-4.139-2.371-4.953-4.859zM113.002 41.511l11.852-26.9 11.372 26.9h-23.224zm156.324-6.395V20.817c0-12.68.774-15.76 4.176-17.18v-.83a74.79 74.79 0 01-9.038.474 45.718 45.718 0 01-7.383-.474v.83c3.399 1.42 4.179 4.5 4.179 17.18v14.299c0 41-.39 43.965-6.121 46.219v.829c2.911-.356 4.664-.474 8.941-.474 3.765-.039 7.529.12 11.278.474v-.83c-5.645-2.019-6.032-5.102-6.032-46.218zm69.212-32.309v.83c1.975.947 2.7 1.299 3.633 2.125 2.182 1.777 3.633 5.215 4.155 9.245.609 5.215 1.036 15.76 1.036 25.123v25.071L298.667 3.226a64.617 64.617 0 01-8.513.474 65.15 65.15 0 01-8.614-.474v.826c6.123 2.37 7.266 5.096 7.266 17.184v17.616c0 26.9-.521 32.943-3.218 38.036-1.247 2.375-3.012 3.675-5.92 4.389v.83a94.88 94.88 0 019.449-.475c2.805 0 4.984.119 10.904.474v-.826c-7.374-2.254-8.621-8.297-8.621-42.425V12.237l58.559 73.474V42.98c0-34.016.415-36.023 8.203-39.343v-.829c-4.152.355-6.752.474-10.904.474a65.356 65.356 0 01-8.72-.474zM451.01.074a51.33 51.33 0 00-20.46 4.151A60.97 60.97 0 00417.327.812c-10.638-1.519-22.005-1.106-32.061 2.955-7.776 3.14-14.686 8.38-19.508 15.25a41.003 41.003 0 00-7.343 23.525 41.501 41.501 0 003.496 16.78 40.703 40.703 0 009.693 13.454 45.107 45.107 0 0014.662 8.923c6.182 2.32 12.775 3.302 19.359 3.341 7.999.042 15.735-1.822 23.02-5.036 6.602 3.186 14.259 4.963 22.557 4.963 26.177 0 46.463-18.147 46.463-41.912C497.659 18.108 478.026.074 451.01.074zm-27.458 77.938a35.454 35.454 0 01-10.431 3.803c-6.706 1.254-14.238.738-20.67-1.604a32.18 32.18 0 01-13.077-8.917c-3.722-4.215-6.31-9.327-7.849-14.709a51.116 51.116 0 01-1.878-14.043c0-12.416 3.555-21.868 9.255-28.653 6.907-8.224 17.396-11.182 27.836-11.152 6.322.018 12.906 1.194 18.49 4.18-12.513 7.458-20.481 20.378-20.481 35.6 0 14.961 7.566 27.568 19.56 35.064-.262.143-.518.3-.755.431zm27.644 4.298c-6.737 0-12.739-1.659-17.805-4.656a52.997 52.997 0 008.416-5.55v-15.05c0-12.264.281-12.68 6.401-14.946v-.72c-4.45.204-8.349.304-15.85.304-6.31 0-4.856-.103-8.752-.413v.823c6.496 1.962 8.008 7.423 8.008 14.123v7.32c0 4.224-.463 7.112-1.484 8.865a9.047 9.047 0 01-1.375 1.858c-8.072-7.021-12.803-18.183-12.803-31.756 0-12.413 3.552-21.867 9.255-28.649a26.508 26.508 0 014.301-4.127 23.1 23.1 0 017.925 12.412l.649.304 3.71-12.148c.11-.359-3.756-2.515-4.152-2.734a46.63 46.63 0 00-2.438-1.303 37.249 37.249 0 0115.792-3.423c10.285 0 19.914 3.927 25.989 11.356 5.792 6.897 8.883 16.024 8.883 28.853.015 22.918-14.29 39.258-34.67 39.258zm-144.585 85.586c-.875-1.896-4.761-10.548-11.464-25.834l-18.174-43.613-19.615 45.153c-11.278 25.833-14.488 31.525-20.026 35.671v.829c2.621-.356 4.267-.474 8.065-.474a85.9 85.9 0 0110.105.474v-.829c-3.691-1.662-5.346-3.915-5.346-7.35 0-3.675 1.265-7.593 7.01-21.33l3.597-8.531h25.459l7.675 18.602c2.917 7.11 3.789 10.326 3.789 13.512 0 2.488-1.36 4.252-3.789 5.097v.829c3.112-.356 5.151-.474 9.617-.474 5.155 0 7.971.118 12.15.474v-.829c-3.902-2.372-5.654-4.504-9.053-11.377zm-44.68-28.443l11.839-26.891 11.367 26.903-23.206-.012zm166.702 23.106c-6.401 10.667-16.616 14.694-37.313 14.694-7.48 0-9.715-.352-11.37-2.014-2.039-2.013-2.719-9.005-2.719-27.258v-8.291h13.309c16.908 0 21.38 1.895 23.321 9.479h.683v-21.807h-.683c-2.331 7.705-6.992 9.719-23.029 9.719h-13.601v-33.657h16.128c15.647 0 22.935 3.316 29.735 13.393l.68-.358-3.499-15.641h-117.66l-4.179 15.167h.682c6.609-9.111 12.925-12.561 23.127-12.561 3.399 0 6.706.71 7.483 2.25.583 1.306.875 4.86.875 12.799v14.341c0 23.583-.305 32.354-1.07 37.803-.78 4.981-2.722 7.468-6.706 8.653v.832c3.308-.359 5.542-.474 11.76-.474 6.313 0 8.535.115 11.855.474v-.832c-3.984-1.185-5.929-3.672-6.706-8.653-.775-5.449-1.067-14.22-1.067-37.803v-14.341c0-7.936.304-11.493.871-12.799.781-1.54 3.923-2.25 7.316-2.25 7.925 0 13.979 1.287 18.899 6.769 2.438 2.71 3.408 6.199 3.408 9.176v13.8c0 23.347-.195 31.999-.973 37.448-.774 4.859-2.527 7.468-6.12 8.653v.832c2.624-.122 6.898-.24 11.077-.24h51.694l4.374-16.947-.582-.356zm-204.924 8.179c-.777-5.448-1.07-14.219-1.07-37.803v-14.341c0-7.939.305-11.495.878-12.798.778-1.54 2.527-2.254 5.926-2.254 10.202 0 16.616 3.557 23.127 12.565h.682l-4.179-15.168h-60.927l-1.143 3.988c-8.401-3.948-16.792-6.007-24.782-6.007-14.963 0-25.748 9.837-25.748 23.349 0 5.096 1.75 9.719 4.759 12.561 3.697 3.439 7.968 5.571 17.103 8.295l8.84 2.609c5.636 1.661 9.035 2.961 11.467 4.622 3.207 2.126 5.151 6.281 5.151 11.019 0 10.551-8.358 18.016-20.118 18.016-9.522 0-18.847-3.796-24.583-9.837-2.719-2.964-4.179-6.636-4.572-11.374l-.574-.365-1.868 5.753c-1.253 3.86-3.676 7.003-6.791 8.753-6.329 3.562-15.028 5.053-27.608 5.053-7.48 0-11.315-.352-12.97-2.013-2.036-2.014-2.719-9.005-2.719-27.258v-8.292H96.9c16.908 0 21.38 1.892 23.321 9.479h.683v-21.806h-.683c-2.331 7.705-6.992 9.718-23.029 9.718h-15.2v-33.66h17.727c15.647 0 22.932 3.32 29.735 13.394l.68-.356-3.499-15.641h-57.86v.826c4.178 1.422 5.154 4.623 5.154 17.777v13.746c0 23.349-.195 32.002-.976 37.45-.774 4.86-2.527 7.466-6.12 8.653v.826c2.624-.115 6.9-.234 11.077-.234h53.294v-.033c.86-3.371 4.624-4.802 7.179-3.721h.021c8.492 3.709 17.612 5.771 25.952 5.771 15.933 0 28.275-11.019 28.275-25.36 0-5.096-1.945-10.326-4.953-13.157-3.597-3.553-8.944-5.922-18.463-8.413l-7.569-1.898c-12.049-3.082-16.807-7.468-16.807-15.526 0-4.251 1.941-8.768 5.148-11.844 3.204-2.961 6.804-4.267 12.144-4.267 10.135 0 18.819 4.23 22.889 10.426l1.146 2.014c6.096-7.824 11.415-10.427 21.618-10.427 3.398 0 5.148.714 5.925 2.254.586 1.303.872 4.859.872 12.798v14.341c0 23.584-.286 32.355-1.067 37.803-.777 4.978-2.722 7.466-6.706 8.653v.826c3.304-.352 5.539-.474 11.757-.474 6.316 0 8.553.122 11.858.474v-.844c-3.991-1.175-5.932-3.663-6.713-8.641z"/></svg>