<svg width="51" height="20" viewBox="0 -1 51 19" fill="none" xmlns="http://www.w3.org/2000/svg"><path d="M7.594 3.978a5.79 5.79 0 011.745-.275 5.62 5.62 0 013.474 1.194 5.27 5.27 0 011.909 3.045l3.77-.744a8.85 8.85 0 00-1.575-3.462 9.234 9.234 0 00-2.91-2.535 9.589 9.589 0 00-3.731-1.16 9.671 9.671 0 00-3.897.417l1.215 3.52zM3.148 15.75l2.545-2.776a5.318 5.318 0 01-1.368-1.792 5.141 5.141 0 010-4.35 5.318 5.318 0 011.368-1.793L3.148 2.264A9.036 9.036 0 00.823 5.31 8.735 8.735 0 000 9.007c0 1.275.28 2.535.823 3.697a9.036 9.036 0 002.325 3.046zm11.565-5.686a5.27 5.27 0 01-1.91 3.04 5.622 5.622 0 01-3.472 1.19 5.547 5.547 0 01-1.744-.274l-1.225 3.515a9.672 9.672 0 003.895.419 9.588 9.588 0 003.73-1.159 9.233 9.233 0 002.91-2.532 8.85 8.85 0 001.576-3.46l-3.76-.739zm16.313 2.486a3.453 3.453 0 01-2.399.928 3.379 3.379 0 01-1.73-.503l-1.247 1.919a5.866 5.866 0 003.638.81 5.787 5.787 0 003.377-1.534l-1.64-1.62zm-2.26-7.8a5.866 5.866 0 00-2.945.741 5.596 5.596 0 00-2.129 2.098c-.5.872-.743 1.86-.706 2.855a5.36 5.36 0 00.92 2.798l10.317-4.254a5.467 5.467 0 00-1.971-3.025 5.823 5.823 0 00-3.485-1.214zm-3.417 5.835a2.136 2.136 0 01-.017-.394 3.16 3.16 0 01.629-1.834 3.348 3.348 0 011.6-1.163 3.476 3.476 0 012.003-.076 3.36 3.36 0 011.69 1.037l-5.905 2.43zM37.46 2.272v10.609l1.908.762-.905 2.092-1.884-.755a2.15 2.15 0 01-.93-.755c-.212-.314-.367-.743-.367-1.313V2.272h2.178zm6.884 4.9c.342-.111.7-.167 1.061-.165a3.43 3.43 0 012.122.728c.6.471 1.01 1.128 1.165 1.858l2.3-.448a5.397 5.397 0 00-.96-2.113 5.63 5.63 0 00-1.774-1.547 5.898 5.898 0 00-4.655-.453l.742 2.14zm-2.707 7.186l1.558-1.691a3.241 3.241 0 01-.837-1.094 3.135 3.135 0 010-2.657c.196-.417.48-.79.837-1.093l-1.558-1.691a5.506 5.506 0 00-1.421 1.857 5.32 5.32 0 000 4.512 5.518 5.518 0 001.42 1.857zm7.055-3.47a3.222 3.222 0 01-1.166 1.858 3.437 3.437 0 01-2.12.73 3.354 3.354 0 01-1.062-.166l-.741 2.148a5.96 5.96 0 001.81.283 5.837 5.837 0 003.606-1.239A5.47 5.47 0 0051 11.345l-2.308-.457z" fill="#9EB091"/></svg>