<svg width="45" height="20" viewBox="0 0 45 14" fill="none" xmlns="http://www.w3.org/2000/svg"><path d="M41.663 13.784l-.413-2.021h-4.725l-.75 2.02h-3.787L37.425 1.3c.3-.698.85-1.046 1.65-1.046h3L45 13.783h-3.337zm-4.088-4.8h3.037l-1.125-5.087-1.912 5.088zM13.237.254h3.788l-5.85 13.53H7.312a751.993 751.993 0 01-2.85-10.716c-.2-.77-.612-1.257-1.237-1.461C2.6 1.4 1.525 1.07 0 .613v-.36h6.075c1.05 0 1.662.493 1.837 1.479l1.5 7.686L13.238.253zm9.038 0l-3.037 13.53h-3.6l3-13.53h3.637zM29.588 0c.5 0 1.075.072 1.724.216a7.414 7.414 0 011.5.397l-.637 2.815c-1.1-.433-2.05-.638-2.85-.614-.675 0-1.225.115-1.65.343-.425.229-.637.487-.637.776 0 .289.162.577.487.866.225.168.663.42 1.313.758.55.288.974.529 1.274.721.826.506 1.388 1.047 1.688 1.624.25.433.363.962.338 1.588a3.88 3.88 0 01-.675 2.2c-.5.698-1.188 1.252-2.063 1.66-.975.434-2.125.65-3.45.65-.925-.024-1.662-.084-2.212-.18-.5-.073-1.15-.253-1.95-.542l.637-2.922c.85.336 1.488.553 1.912.65.5.12 1.076.18 1.726.18.65 0 1.193-.115 1.63-.343.438-.229.67-.547.694-.956a.98.98 0 00-.356-.776c-.237-.205-.718-.5-1.444-.884-1.024-.553-1.762-1.023-2.212-1.407-.75-.722-1.119-1.522-1.106-2.4a3.639 3.639 0 01.825-2.31c.537-.66 1.281-1.178 2.231-1.55.95-.374 2.038-.56 3.262-.56z" fill="#9EB091"/></svg>