<svg width="27" height="20" viewBox="0 -2 27 17" fill="none" xmlns="http://www.w3.org/2000/svg"><path d="M13.5 1.822c1.014.8 1.8 1.788 2.356 2.964a8.579 8.579 0 01.835 3.714c0 1.3-.278 2.539-.835 3.714a8.182 8.182 0 01-2.356 2.964 8.18 8.18 0 01-2.356-2.964 8.578 8.578 0 01-.835-3.714c0-1.3.278-2.539.835-3.714A8.182 8.182 0 0113.5 1.822zm-1.056-.725a9.294 9.294 0 00-2.49 3.314 9.832 9.832 0 00-.872 4.076c0 1.426.29 2.79.871 4.09a9.394 9.394 0 002.467 3.326 7.897 7.897 0 01-3.67 1.088 8.33 8.33 0 01-3.755-.7 8.032 8.032 0 01-3.068-2.351A8.508 8.508 0 01.22 10.438a8.615 8.615 0 010-3.876A8.432 8.432 0 011.939 3.06 8.158 8.158 0 015.007.71 8.26 8.26 0 018.75.008a8.05 8.05 0 013.694 1.088zm2.136 14.806a9.394 9.394 0 002.467-3.326c.58-1.3.871-2.664.871-4.09 0-1.425-.29-2.784-.871-4.076a9.422 9.422 0 00-2.467-3.314A7.897 7.897 0 0118.25.009a8.26 8.26 0 013.743.7A8.157 8.157 0 0125.06 3.06a8.433 8.433 0 011.718 3.502 8.616 8.616 0 010 3.876 8.51 8.51 0 01-1.706 3.502 8.033 8.033 0 01-3.068 2.35 8.33 8.33 0 01-3.755.701 7.897 7.897 0 01-3.67-1.088z" fill="#9EB091"/></svg>