<svg width="44" height="20" viewBox="0 -1 44 18" fill="none" xmlns="http://www.w3.org/2000/svg"><path d="M26.29 2.172a3.906 3.906 0 00-1.288-.853 3.817 3.817 0 00-1.508-.28h-4.308v13.033h1.624v-5.28h2.695c1.1 0 2.028-.374 2.785-1.112a3.705 3.705 0 001.16-2.764 3.687 3.687 0 00-.29-1.502 3.59 3.59 0 00-.87-1.242zm-1.15 4.344a2.123 2.123 0 01-.733.514 2.07 2.07 0 01-.872.162H20.81V2.64l2.725.01c.3-.01.598.046.874.164.277.118.526.296.73.522l.04.042c.198.208.354.455.46.726a2.278 2.278 0 01-.023 1.699 2.22 2.22 0 01-.477.713zm17.094-1.351l-2.512 6.402h-.04l-2.573-6.402h-1.766l3.572 8.345L36.897 18h1.675L44 5.155l-1.766.01zm-8.194.686c-.696-.655-1.645-.987-2.846-.987-1.544 0-2.704.582-3.481 1.735l1.433.925c.534-.79 1.251-1.185 2.16-1.185.576.001 1.132.22 1.563.614.21.18.378.406.493.661.115.255.174.533.173.814v.385c-.625-.353-1.412-.54-2.381-.54-1.13 0-2.039.27-2.715.82-.676.551-1.019 1.279-1.019 2.204-.01.414.071.826.237 1.204.166.378.413.712.722.978.636.582 1.443.873 2.391.873 1.12 0 2.009-.509 2.685-1.527h.07v1.236h1.554V8.574c0-1.154-.343-2.058-1.04-2.723zm-1.322 6.236a2.532 2.532 0 01-1.827.779 1.947 1.947 0 01-1.261-.436 1.342 1.342 0 01-.394-.48c-.093-.19-.141-.4-.14-.612 0-.488.221-.893.655-1.226.434-.333 1-.488 1.655-.488.908 0 1.615.207 2.12.623 0 .707-.273 1.32-.808 1.84zM7.267 6.132V9.01h3.925c-.08.461-.25.9-.5 1.292-.25.39-.574.726-.953.985-.656.457-1.493.716-2.472.716-1.897 0-3.502-1.32-4.077-3.086-.3-.928-.3-1.932 0-2.86.575-1.775 2.18-3.095 4.077-3.095a3.85 3.85 0 012.785 1.122l2.069-2.13A6.827 6.827 0 007.267 0a7.102 7.102 0 00-3.539.95 7.364 7.364 0 00-2.641 2.606 7.67 7.67 0 00-.309 7.284v.01a7.415 7.415 0 002.68 3.002 7.118 7.118 0 003.809 1.113c1.958 0 3.613-.665 4.814-1.808 1.372-1.299 2.159-3.222 2.159-5.508a9.51 9.51 0 00-.121-1.517H7.267z" fill="#9EB091"/></svg>