<svg width="82" height="20" viewBox="0 0 82 19" fill="none" xmlns="http://www.w3.org/2000/svg"><path d="M21.065 6.05c-.646-1.355-1.906-2.206-3.78-2.206a3.741 3.741 0 00-1.648.41c-.513.25-.956.617-1.292 1.071l-.065.095V.126a.112.112 0 00-.032-.094A.25.25 0 0014.12 0h-2.65a.122.122 0 00-.096.032.116.116 0 00-.033.094v15.156a.109.109 0 00.077.122.116.116 0 00.053.004h2.843a.115.115 0 00.097-.031.11.11 0 00.032-.095v-6.46a1.995 1.995 0 01.14-.844c.106-.269.27-.513.481-.715a2.12 2.12 0 011.608-.583c1.519 0 1.874 1.197 1.874 2.426v6.176a.109.109 0 00.077.122.116.116 0 00.053.004h2.843a.116.116 0 00.097-.031.11.11 0 00.032-.095V8.728a4.558 4.558 0 00-.032-.662 6.246 6.246 0 00-.55-2.016zM6.817 8.287l-1.97-.473c-.55-.126-1.455-.41-1.455-1.103 0-.693.744-.913 1.519-.913.775 0 1.615.189 1.68 1.008a.11.11 0 00.077.09.122.122 0 00.052.005h2.843l.033-.032.032-.032v-.063c-.161-2.646-2.552-3.592-4.75-3.592-2.616 0-4.523 1.67-4.523 3.53 0 1.354.388 2.615 3.457 3.497.55.158 1.26.347 1.907.536.775.22 1.195.535 1.195 1.04 0 .567-.872.976-1.712.976-1.228 0-2.1-.44-2.165-1.229a.11.11 0 00-.077-.089.123.123 0 00-.052-.005H.065a.033.033 0 00-.023.009.031.031 0 00-.01.022L0 11.501v.031c.13 2.49 2.617 3.844 4.91 3.844 3.426 0 4.977-1.89 4.977-3.655.032-.819-.162-2.71-3.07-3.434zm36.186-4.474c-.66.017-1.307.18-1.895.474a4.382 4.382 0 00-1.497 1.227V3.907a.114.114 0 00-.033-.094.101.101 0 00-.064-.032h-2.682a.116.116 0 00-.097.031.11.11 0 00-.032.095V18.78c0 .032 0 .064.032.064a.12.12 0 00.097.031h2.843c.033 0 .065 0 .065-.031a.11.11 0 01.032-.064v-4.852h.033c.452.662 1.68 1.481 3.295 1.481 3.037 0 5.59-2.458 5.59-5.798.032-3.182-2.488-5.797-5.687-5.797zm-.258 8.76a3.26 3.26 0 01-1.713-.473 2.936 2.936 0 01-1.163-1.324 2.808 2.808 0 01-.194-1.701 3 3 0 01.808-1.544c.42-.416.959-.7 1.545-.818a3.103 3.103 0 011.75.156 3.01 3.01 0 011.358 1.071c.33.487.509 1.056.517 1.639.003.389-.074.775-.227 1.134a2.375 2.375 0 01-.646.945c-.266.284-.599.5-.97.63-.319.194-.69.293-1.065.284zM28.238 3.182c-2.65 0-3.974.883-5.04 1.576l-.032.031a.176.176 0 00-.097.158.391.391 0 00.032.189L24.167 6.9c.032.032.032.064.065.095a.12.12 0 00.097.032h.129c.032 0 .065-.032.097-.063l.097-.064c.549-.44 1.421-1.04 3.554-1.197a3.971 3.971 0 011.58.138c.512.152.986.405 1.392.744.433.42.773.922 1.001 1.475.228.552.338 1.144.324 1.74 0 2.331-1.422 3.812-3.683 3.843-1.874 0-3.134-.976-3.134-2.363 0-.756.355-1.229 1.034-1.733a.17.17 0 00.097-.158.391.391 0 00-.033-.188l-.937-1.733c-.032-.032-.032-.063-.065-.095-.032-.031-.064-.031-.096-.063h-.097c-.033 0-.065.032-.097.032a4.21 4.21 0 00-1.738 1.623 4.067 4.067 0 00-.556 2.284c.097 2.741 2.423 4.852 5.46 4.915h.355c3.619-.126 6.236-2.741 6.236-6.27-.065-3.214-2.488-6.712-7.011-6.712zm31.727 1.67h-1.809c-.032 0-.097.032-.13.032-.032 0-.032.063-.032.126v3.718a.31.31 0 00.033.095c.032.031.064.031.129.031h1.81c1.098 0 1.906-.85 1.906-2.017 0-1.165-.808-1.985-1.907-1.985zm5.557 6.554c0 .536.453.851 1.293.851 1.098 0 1.745-.567 1.745-1.607v-.284l-1.648.095c-.873 0-1.39.347-1.39.945z" fill="#9EB091"/><path d="M78.963.032h-24.36c-.4-.007-.796.069-1.164.22a4.099 4.099 0 00-1.002.63 2.48 2.48 0 00-.646.977 2.74 2.74 0 00-.226 1.134v13.014c.005.792.33 1.55.905 2.11a3.124 3.124 0 002.164.883h24.329c.4.006.795-.069 1.163-.22a4.103 4.103 0 001.002-.63c.291-.272.513-.607.646-.977A2.74 2.74 0 0082 16.037V2.993a2.74 2.74 0 00-.226-1.134 3.976 3.976 0 00-.646-.977 2.557 2.557 0 00-1.002-.63 3.795 3.795 0 00-1.163-.22zm-18.9 10.303h-1.907c-.032 0-.097.031-.13.031-.032 0-.032.064-.032.127v2.646c0 .032-.032.095-.032.126 0 .032-.064.032-.129.032h-1.357c-.032 0-.097-.032-.13-.032-.032 0-.032-.063-.032-.126V3.561c0-.032.033-.095.033-.127 0-.031.064-.031.129-.031h3.586c2.036 0 3.49 1.45 3.49 3.466 0 2.017-1.454 3.466-3.49 3.466zm10.08 2.804v.063c0 .032-.033.032-.033.063a.114.114 0 01-.064.032h-1.39c-.032 0-.032-.032-.064-.032a.11.11 0 01-.032-.063v-.346c0-.032 0-.063-.033-.063-.032 0-.032-.032-.064-.032h-.065c-.032 0-.032.032-.065.032-.387.41-1.001.693-1.97.693-1.454 0-2.424-.725-2.424-2.017a2.213 2.213 0 01.194-.913c.132-.285.345-.525.614-.694.517-.378 1.325-.567 2.552-.63l1.293-.031v-.378c0-.725-.517-1.04-1.325-1.04-.808 0-1.325.283-1.454.724 0 .032-.032.063-.064.095a.12.12 0 01-.097.031h-1.325c-.032 0-.032-.031-.065-.031-.032 0-.032-.032-.032-.063v-.063c.194-1.103 1.099-1.922 3.07-1.922 2.1 0 2.843.945 2.843 2.773v3.812zm7.948-6.207l-2.843 7.373c-.647 1.702-1.778 2.143-3.005 2.143-.23 0-.458-.032-.679-.095-.032 0-.064-.031-.097-.063a.116.116 0 01-.032-.094v-1.198c0-.031.032-.031.032-.063 0-.031.033-.031.065-.031h.065c.191.036.386.057.581.063.347.018.69-.082.97-.284a1.42 1.42 0 00.58-.787l.098-.253v-.094l-2.65-6.617v-.063c0-.032 0-.063.033-.063.032 0 .032-.032.064-.063.033-.032.033-.032.065-.032h1.292a.122.122 0 01.097.032l.065.063 1.81 4.695a.068.068 0 00.02.043.072.072 0 00.044.02.164.164 0 00.194 0c.032-.032.064-.032.064-.063l1.551-4.664c0-.031.032-.063.065-.094a.12.12 0 01.097-.032h1.324c.033 0 .065 0 .065.032 0 .031.032.031.065.063.032.031.032.031.032.063s-.032.032-.032.063z" fill="#9EB091"/></svg>