<svg width="41" height="20" viewBox="0 -1 41 19" fill="none" xmlns="http://www.w3.org/2000/svg"><path d="M7.415 2.25c-.594.773-1.273 1.114-2.037 1.023-.085-.773.17-1.5.764-2.182C6.652.409 7.309.045 8.115 0c.085.818-.148 1.568-.7 2.25zm.7 1.227c1.104.091 1.931.568 2.483 1.432h-.063c-.977.682-1.443 1.591-1.401 2.727a3.707 3.707 0 00.223 1.262c.063.159.138.318.223.477.085.16.18.295.286.41l.287.306c.085.09.18.159.286.205.106.045.191.09.255.136.063.045.116.08.159.102l.064.034c-.128.636-.425 1.318-.892 2.046-.764 1.181-1.464 1.772-2.1 1.772-.298 0-.658-.09-1.083-.272-.424-.182-.806-.273-1.146-.273-.34 0-.721.09-1.146.273-.424.181-.764.272-1.018.272-.637.046-1.359-.568-2.165-1.84-.637-1-1.061-2.148-1.273-3.444a6.815 6.815 0 01.445-3.784c.637-1.182 1.55-1.795 2.738-1.84.255 0 .53.056.827.17.298.113.573.227.828.34.255.114.446.171.573.171.127 0 .488-.125 1.082-.375.595-.25 1.104-.352 1.528-.307zm6.367-2.454h4.647c.807 0 1.518.182 2.133.545a3.934 3.934 0 011.464 1.534c.361.66.541 1.42.541 2.284 0 1.273-.392 2.319-1.177 3.137-.785.818-1.793 1.227-3.024 1.227h-2.674v4.5h-1.91V1.023zm1.91 1.704v5.25h2.228c.849 0 1.507-.227 1.974-.682.466-.454.7-1.102.7-1.943 0-.84-.233-1.488-.7-1.943-.467-.454-1.125-.682-1.974-.682h-2.228zm10.377 11.66c-.891 0-1.623-.262-2.196-.785-.573-.523-.86-1.216-.86-2.08 0-1.727 1.146-2.681 3.438-2.863l2.42-.136v-.75c0-1.091-.616-1.637-1.847-1.637-1.061 0-1.676.455-1.846 1.364h-1.72c0-.59.16-1.114.478-1.568a3.13 3.13 0 011.306-1.057 4.423 4.423 0 011.846-.375c1.103 0 1.984.284 2.642.852.658.568.987 1.33.987 2.284v6.614h-1.783v-1.568h-.064c-.551 1.136-1.485 1.704-2.8 1.704zm.51-1.569c.636 0 1.177-.204 1.623-.614a1.96 1.96 0 00.668-1.5v-.75l-2.164.137c-1.231.045-1.846.5-1.846 1.364 0 .272.074.51.222.716.149.204.35.363.605.477.255.113.552.17.891.17zm6.493 5.046h-.7v-1.637c.212.046.403.069.573.069.806 0 1.337-.455 1.591-1.364l.192-.614-3.247-9.682h1.973l2.292 7.841h.064l2.228-7.84h1.974l-3.375 10.159c-.382 1.181-.827 1.988-1.337 2.42-.509.432-1.252.648-2.228.648z" fill="#9EB091"/></svg>