<svg width="31" height="20" viewBox="0 0 31 21" fill="#9EB091" xmlns="http://www.w3.org/2000/svg"><path d="M1.604 7.564h1.181L2.18 6.088l-.576 1.476zm8.356 7.194l.999-1.076-.938-1.076H7.81v.677h1.907v.738H7.81v.737h2.15zm2.12-1.076l1.331 1.507v-2.952l-1.332 1.445zm3.874-.645c0-.144-.045-.252-.136-.323-.09-.072-.227-.108-.409-.108h-1.12v.923h1.12c.182 0 .318-.041.409-.123.09-.082.136-.205.136-.37zm3.905-.031c0-.144-.05-.246-.151-.308-.1-.061-.242-.092-.424-.092h-1.12v.83h1.09c.202 0 .353-.036.454-.107.1-.072.151-.18.151-.323zM16.105 6.64c0-.143-.045-.246-.136-.307-.09-.062-.237-.092-.439-.092h-1.09v.799h1.09c.182 0 .323-.036.424-.108a.34.34 0 00.151-.292zm6.176.923h1.211l-.605-1.476-.606 1.476zM9.415 5.442v3.72h-.908v-2.89l-1.241 2.89h-.787l-1.272-2.89v2.89H3.451l-.333-.83H1.302l-.333.83H0l1.574-3.72h1.302l1.483 3.536V5.442h1.423l1.12 2.521 1.06-2.52h1.453zm7.478 7.595c0 .102-.006.194-.016.276a.497.497 0 01-.075.216 1.43 1.43 0 01-.076.184.586.586 0 01-.106.154c-.04.04-.086.082-.136.123a.536.536 0 01-.167.092.76.76 0 01-.181.092c-.06.02-.111.041-.152.062-.06.02-.126.036-.196.046-.071.01-.147.015-.228.015h-1.27v1.23h-1.695l-1.09-1.23-1.09 1.23H6.963v-3.69h3.481l1.09 1.2 1.09-1.2h2.785c.505 0 .878.103 1.12.308.242.205.364.502.364.892zm-3.936-4.643v.769h-2.906v-3.72h2.906v.799h-2.028v.645h1.998v.769h-1.998v.738h2.028zM31 16.019v3.136c0 .246-.045.477-.136.692a2.221 2.221 0 01-.379.6 1.951 1.951 0 01-.575.415 1.658 1.658 0 01-.696.138H1.786c-.262 0-.494-.046-.696-.138a1.95 1.95 0 01-.575-.415 2.215 2.215 0 01-.379-.6A1.76 1.76 0 010 19.155V9.9h1.483l.333-.83h.757l.333.83h2.937v-.645l.242.645h1.544l.242-.645V9.9h7.296V8.548l.121-.031c.06 0 .101.015.121.046.02.03.03.087.03.17V9.9h3.754v-.307c.101.041.212.082.333.123.122.041.253.082.394.123.141.02.272.036.393.046.122.01.233.015.334.015.08.02.191.026.333.016.14-.01.312-.016.514-.016h.696l.333-.83h.757l.333.83h3.058v-.799l.454.8h2.452V4.734h-2.422v.584l-.363-.584H24.31v.584l-.303-.584h-3.36c-.303 0-.576.026-.818.077a2.223 2.223 0 00-.636.23v-.307h-2.33v.307a.94.94 0 00-.394-.23 1.91 1.91 0 00-.575-.077H7.447l-.575 1.322-.575-1.322H3.633v.584l-.303-.584H1.06L0 7.164v-5.32c0-.266.045-.507.136-.722A1.8 1.8 0 01.515.553C.696.37.893.231 1.105.138 1.317.046 1.544 0 1.786 0h27.428c.262 0 .494.046.696.138.202.093.394.231.575.415.182.164.313.354.394.57.08.214.121.455.121.722V11.1h-1.605c-.242 0-.454.025-.635.076a1.194 1.194 0 00-.454.231V11.1h-2.392a2.37 2.37 0 00-.636.076.94.94 0 00-.423.231V11.1h-4.239v.307a1.503 1.503 0 00-.5-.23 2.662 2.662 0 00-.68-.077H16.62v.307c-.1-.102-.252-.18-.454-.23a3.14 3.14 0 00-.757-.077h-3.148l-.727.799-.666-.8H6.176v5.166h4.601l.727-.8.726.8h2.816v-1.23h.303c.262 0 .494-.015.696-.046a4.08 4.08 0 00.515-.108v1.384h2.33v-1.353h.197c.03 0 .046.01.046.03l.015.032c.01.02.015.05.015.092v1.199h7.114c.263 0 .49-.026.681-.077.192-.051.359-.138.5-.261v.338h2.27c.263 0 .5-.02.712-.062.212-.04.398-.102.56-.184zm-10.202-3.198c0 .103-.015.205-.046.308a1.78 1.78 0 01-.105.277.992.992 0 01-.197.245.909.909 0 01-.258.154c.101.041.192.093.273.154.08.062.141.133.181.215.04.082.071.175.091.277.02.102.03.215.03.338v.738h-.877v-.615a1.29 1.29 0 00-.046-.369.523.523 0 00-.106-.215.906.906 0 00-.242-.108c-.1-.03-.232-.046-.393-.046h-.939v1.353h-.848v-3.69h2.059c.222 0 .419.016.59.047.172.03.318.087.44.169a.568.568 0 01.302.292c.06.133.09.292.09.476zm-3.724-6.364c0 .102-.015.205-.045.307a.884.884 0 01-.136.277.559.559 0 01-.182.246c-.08.061-.162.113-.242.154.1.04.191.092.272.153a.62.62 0 01.182.216.71.71 0 01.09.261c.02.113.03.23.03.354v.738h-.877v-.708a.512.512 0 00-.015-.123.513.513 0 01-.015-.123.503.503 0 00-.121-.215.136.136 0 00-.091-.077 1.75 1.75 0 01-.151-.046.55.55 0 00-.167-.046 1.585 1.585 0 00-.227-.015h-.939v1.353h-.877v-3.72l2.058.03c.222 0 .424.015.606.046.181.03.333.077.454.138a.568.568 0 01.302.292c.06.134.091.303.091.508zm7.114 8.301v.77h-2.906v-3.69h2.907v.768H22.16v.677h1.998v.738H22.16v.737h2.029zm-5.721-9.316v3.72h-.908v-3.72h.908zm9.324 8.917c0 .39-.116.681-.348.876-.232.195-.58.292-1.045.292h-1.695v-.769h1.695c.162 0 .283-.03.364-.092.08-.061.12-.154.12-.277a.267.267 0 00-.06-.169.323.323 0 00-.181-.107 1.928 1.928 0 00-.258-.046 2.578 2.578 0 00-.287-.016c-.121 0-.237-.005-.348-.015a3.006 3.006 0 01-.318-.046.637.637 0 01-.318-.077.892.892 0 01-.257-.23.774.774 0 01-.182-.308 1.381 1.381 0 01-.06-.43c0-.185.03-.344.09-.477s.152-.251.273-.354c.12-.082.252-.148.393-.2.141-.05.303-.076.485-.076h1.755v.768h-1.604c-.162 0-.283.03-.363.092a.294.294 0 00-.122.246c0 .082.02.144.061.185.04.04.101.072.182.092.08.02.166.036.257.046.09.01.197.016.318.016.1 0 .207.005.318.015.11.01.217.015.318.015a.973.973 0 01.575.308c.08.082.141.184.181.307.04.123.061.267.061.43zM31 13.682v1.384a.844.844 0 01-.454.353 2.178 2.178 0 01-.727.108h-1.695v-.769h1.695c.142 0 .253-.03.333-.092.081-.061.121-.154.121-.277a.278.278 0 00-.045-.138.242.242 0 00-.136-.107 4.653 4.653 0 00-.197-.062.426.426 0 00-.227 0 2.29 2.29 0 01-.257-.015 2.577 2.577 0 00-.288-.016 9.546 9.546 0 00-.257-.061 9.928 9.928 0 01-.258-.062.662.662 0 01-.227-.107.75.75 0 01-.196-.231.88.88 0 01-.137-.277 1.316 1.316 0 01-.045-.369c0-.184.03-.343.09-.476.061-.133.152-.251.273-.354a1.585 1.585 0 01.909-.276H31v.768h-1.574c-.162 0-.283.03-.363.092a.294.294 0 00-.122.246c0 .103.03.18.091.231.06.051.152.077.273.077a5.8 5.8 0 00.439.046c.151.01.317.015.5.015.18.02.332.062.453.123a.896.896 0 01.303.246zm-2.21-8.21v3.69h-1.241l-1.635-2.767v2.768h-1.786l-.363-.83h-1.787l-.333.83h-1.029c-.565 0-.994-.154-1.286-.462-.293-.307-.44-.758-.44-1.353 0-.635.147-1.112.44-1.43.292-.317.741-.476 1.347-.476h.847v.83a1.32 1.32 0 01-.136-.015 1.585 1.585 0 00-.227-.015h-.53c-.05 0-.106.01-.166.03-.08 0-.141.01-.182.031l-.12.062-.077.076-.105.108a.713.713 0 00-.107.138.326.326 0 00-.045.17 1.14 1.14 0 00-.045.215 2.015 2.015 0 00.03.692c.03.133.076.25.136.353.06.082.146.144.258.185.11.04.247.061.408.061h.394l1.241-2.89h1.302l1.483 3.505V5.473h1.332l1.514 2.552V5.473h.908z"/></svg>